PathFileType	3	(X/Y/Z)	D:\Vicon Database\Healthy Subjects\S0040\Jan. 30, 2020\Force Plate Walk 3.trc
DataRate	CameraRate	NumFrames	NumMarkers	Units	OrigDataRate	OrigDataStartFrame	OrigNumFrames
100.0	100.0	7	53	mm	100.0	406	290	
Frame#	Time	right_foot_cluster2			right_foot_cluster3			sternum_cluster1			sternum_cluster2			sternum_cluster3			left_asis			right_asis			left_psis			right_psis			sacrum_cluster1			sacrum_cluster2			sacrum_cluster3			left_lat_femoral_epicondyle			left_anterior_thigh15			left_anterior_thigh25			left_anterior_thigh50			left_lateral_thigh25			left_lateral_thigh50			left_thigh_cluster1			left_thigh_cluster2			left_thigh_cluster3			left_fibular_head			left_tibial_tuberosity			left_anterior_shank30			left_lateral_malleolus			left_shank_cluster1			left_shank_cluster2			left_shank_cluster3			left_heel			left_metatarsal2			left_foot_cluster1			left_foot_cluster2			left_foot_cluster3			right_lat_femoral_epicondyle			right_anterior_thigh15			right_anterior_thigh25			right_anterior_thigh50			right_lateral_thigh25			right_lateral_thigh50			right_thigh_cluster1			right_thigh_cluster2			right_thigh_cluster3			right_fibular_head			right_tibial_tuberosity			right_lateral_distal_shank			right_anterior_shank30			right_lateral_malleolus			right_shank_cluster1			right_shank_cluster2			right_shank_cluster3			right_heel			right_metatarsal2			right_foot_cluster1			
		X1	Y1	Z1	X2	Y2	Z2	X3	Y3	Z3	X4	Y4	Z4	X5	Y5	Z5	X6	Y6	Z6	X7	Y7	Z7	X8	Y8	Z8	X9	Y9	Z9	X10	Y10	Z10	X11	Y11	Z11	X12	Y12	Z12	X13	Y13	Z13	X14	Y14	Z14	X15	Y15	Z15	X16	Y16	Z16	X17	Y17	Z17	X18	Y18	Z18	X19	Y19	Z19	X20	Y20	Z20	X21	Y21	Z21	X22	Y22	Z22	X23	Y23	Z23	X24	Y24	Z24	X25	Y25	Z25	X26	Y26	Z26	X27	Y27	Z27	X28	Y28	Z28	X29	Y29	Z29	X30	Y30	Z30	X31	Y31	Z31	X32	Y32	Z32	X33	Y33	Z33	X34	Y34	Z34	X35	Y35	Z35	X36	Y36	Z36	X37	Y37	Z37	X38	Y38	Z38	X39	Y39	Z39	X40	Y40	Z40	X41	Y41	Z41	X42	Y42	Z42	X43	Y43	Z43	X44	Y44	Z44	X45	Y45	Z45	X46	Y46	Z46	X47	Y47	Z47	X48	Y48	Z48	X49	Y49	Z49	X50	Y50	Z50	X51	Y51	Z51	X52	Y52	Z52	X53	Y53	Z53	
406	4.05	2136.3882	104.37098	-223.59445	2134.9839	107.35378	-260.91696	2046.027	1457.4893	-171.91658	2035.929	1429.1248	-163.10255	2034.3873	1432.4768	-201.19301	2070.9949	1080.4631	-56.507648	2056.9299	1085.4326	-303.40207	2232.2156	1095.77	-107.45828	2227.6804	1102.0796	-225.00424	2238.3733	1156.4935	-171.85483	2243.8291	1131.5924	-184.67677	2248.6484	1125.2844	-145.96776	1969.853	575.62738	-29.557781	1892.8896	680.45172	-64.566032	1915.1069	769.66431	-51.564861	1982.0944	892.99219	-47.646122	2021.7853	716.9837	-8.4749794	2077.4673	855.70856	15.389021	2061.8667	810.88147	21.414112	2053.4998	782.15936	18.329657	2023.015	803.72028	25.638147	1967.0963	500.3996	-23.134987	1905.6222	484.8735	-70.967102	1986.7734	241.92316	-89.198776	2062.6431	138.45412	-66.766182	1915.1686	426.86966	-99.429405	1918.8346	399.56808	-90.498825	1927.6478	402.17368	-128.18497	2137.676	119.66799	-114.42462	1925.1404	76.247879	-88.670815	1972.5923	135.89633	-85.228043	1954.4844	113.8411	-73.970009	1944.983	119.92433	-110.93807	2171.8652	542.03912	-308.40915	2079.561	619.76575	-249.30287	2049.4202	697.60333	-250.3452	2027.024	827.4704	-266.45911	2144.9727	700.15887	-335.72665	2124.3406	845.76501	-366.67377	2139.0908	793.92566	-371.21228	2130.656	766.95288	-365.86856	2169.9197	770.04236	-364.12628	2192.384	475.49777	-310.36139	2139.731	461.42487	-264.51593	2233.7227	207.79951	-292.97055	2186.9424	217.56847	-246.93083	2246.8704	102.41531	-277.51724	2158.219	398.93613	-209.05992	2166.5408	371.84348	-201.99701	2142.531	367.30167	-230.18835	2324.5784	69.879669	-243.36838	2104.7	70.365852	-232.79097	2160.1895	118.29515	-233.62029
407	4.06	2135.9885	104.23396	-223.35677	2134.6453	107.28551	-260.69318	2030.8918	1455.8604	-171.32443	2021.1062	1427.2849	-162.78091	2019.3617	1430.7474	-200.78017	2057.0623	1078.8658	-56.44405	2042.9332	1083.4728	-303.40332	2218.4419	1094.6433	-107.14706	2213.7129	1100.8376	-224.81993	2224.1465	1155.2433	-171.62149	2229.7649	1130.2382	-184.58089	2234.6292	1124.0126	-145.85542	1952.7664	575.30536	-30.237612	1877.2714	681.04877	-65.636871	1899.8125	770.12311	-52.600117	1967.3276	892.84174	-48.100384	2005.6072	716.54181	-8.6535969	2062.3364	855.03613	15.804516	2046.1866	810.24042	21.971155	2037.6062	781.32916	18.196516	2007.3502	803.50781	25.671604	1947.2834	499.4949	-23.783804	1885.8033	486.95456	-71.954262	1949.8943	239.17877	-88.62973	2017.7712	130.3765	-65.189476	1891.8646	428.61581	-100.12983	1893.2661	401.3623	-91.244362	1902.6895	403.3457	-128.87827	2091.9485	106.48312	-112.13889	1876.3459	78.37558	-88.209061	1928.1119	134.32913	-84.541893	1908.6194	113.35474	-73.525665	1899.3405	120.58036	-110.22036	2168.125	542.13922	-308.3692	2074.2205	617.97388	-249.09175	2041.8048	695.10809	-250.14355	2016.434	824.68933	-266.33328	2137.2896	699.69861	-335.95309	2114.033	844.59558	-366.16052	2129.6326	793.15247	-371.22702	2121.6975	765.8382	-365.5365	2160.8772	769.72534	-364.08908	2189.6904	475.84903	-310.10477	2137.1323	461.15854	-264.54138	2232.6169	208.32616	-292.70135	2185.7859	217.72067	-246.89587	2246.4763	103.04639	-277.07672	2155.2813	398.86813	-209.01982	2164.2419	371.78397	-202.01974	2140.1648	367.40768	-230.33302	2324.3101	70.626953	-243.13976	2104.3684	70.044838	-232.74319	2159.1973	118.58738	-233.19081
408	4.07	2135.7236	104.04182	-222.98442	2134.2263	107.15213	-260.48035	2016.2432	1453.4727	-171.44142	2006.1285	1425.1602	-162.46404	2004.2815	1428.566	-200.47856	2042.9771	1076.9917	-56.433624	2028.8811	1081.1959	-303.48077	2204.4155	1092.9117	-106.82875	2199.6021	1099.1265	-224.55786	2209.9529	1153.4799	-171.34778	2215.5195	1128.6229	-184.30702	2220.4988	1122.2871	-145.62727	1936.8313	574.06702	-30.889263	1862.2814	680.56006	-67.078133	1884.9733	769.49561	-54.050789	1952.9149	891.65271	-48.800678	1989.9716	715.27136	-8.9972897	2047.3738	853.56921	15.966032	2030.6852	808.80609	22.430569	2021.9944	780.138	18.877972	1991.9072	802.23462	25.770378	1927.5533	498.0947	-24.325027	1866.4357	488.44894	-73.159325	1913.2107	237.52501	-88.297371	1972.7616	124.06939	-63.602791	1868.7596	430.76343	-101.51283	1868.4543	403.1199	-92.594902	1878.7202	404.40799	-129.92993	2045.6255	94.69062	-109.66408	1828.4056	81.969734	-88.086304	1884.0111	134.11105	-83.961784	1862.7014	115.06625	-73.041306	1854.4076	122.43969	-109.93224	2164.3164	541.94067	-308.12399	2068.6306	615.94592	-249.01999	2034.0931	692.44269	-249.87292	2005.5859	821.62561	-266.21857	2130.0295	698.81116	-335.88196	2103.158	843.19135	-366.16809	2119.821	792.08459	-371.17972	2112.543	764.66119	-365.48447	2151.5137	769.18958	-363.91235	2186.8591	476.24078	-309.82346	2134.4565	460.95486	-264.62842	2231.6895	208.92033	-292.46393	2184.4832	217.98637	-246.82733	2246.0405	103.67875	-276.56381	2152.5376	398.83884	-208.97913	2161.6199	371.92004	-201.81276	2137.7578	367.4238	-230.81844	2323.96	71.309143	-242.91504	2104.0295	69.877258	-232.66736	2158.8477	118.55168	-232.8062
409	4.08	2134.9749	103.67406	-222.92545	2133.8323	107.08776	-260.25302	2001.1282	1451.0823	-171.09413	1991.1829	1422.6392	-162.15018	1989.2167	1426.1033	-200.07945	2028.8871	1074.8309	-56.182285	2014.9412	1078.5146	-303.241	2190.2012	1090.4938	-106.71728	2185.2947	1097.0555	-224.23802	2195.5752	1151.3073	-171.15462	2201.3015	1126.517	-184.01796	2206.3477	1120.2332	-145.31046	1921.1924	572.25769	-31.384026	1847.9717	679.11237	-68.697166	1870.817	767.84052	-55.795147	1938.5487	889.52594	-49.353554	1975.2091	713.11969	-9.3800325	2032.691	851.46301	16.306988	2015.5277	807.03558	22.757103	2007.019	778.60669	19.200481	1977.1462	800.43591	26.393692	1908.0096	496.39923	-24.612619	1847.7004	489.45856	-74.356384	1876.9368	236.84335	-88.051254	1928.1541	119.29719	-62.124329	1847.0737	432.49921	-102.85997	1844.2244	405.09573	-93.871307	1855.5203	405.50992	-131.0249	1999.3445	84.690193	-107.13431	1781.371	87.039421	-88.117638	1840.4568	135.24614	-83.652855	1817.6753	117.88506	-72.881859	1810.5245	125.48878	-109.79323	2160.1213	542.14282	-308.17209	2063.0015	613.7854	-248.7532	2026.1616	689.6756	-249.45151	1994.6418	818.50293	-265.87527	2121.9524	698.02759	-335.35855	2092.0408	841.52094	-366.10013	2109.6821	790.70294	-370.8465	2103.1514	763.33453	-364.83698	2141.71	768.26544	-363.43793	2183.9937	476.67099	-309.4122	2131.5911	460.69189	-264.64453	2230.6379	209.57217	-292.05182	2183.2314	218.1537	-246.63181	2245.4243	104.37849	-275.85696	2149.8792	398.75766	-208.81094	2159.0696	371.99713	-201.56374	2135.1416	367.2247	-230.76582	2323.4951	72.01976	-242.59148	2103.54	69.392792	-232.50774	2158.6138	118.09724	-232.53452
410	4.09	2134.459	103.40946	-222.33224	2133.2715	107.08573	-259.63065	1986.0763	1448.2025	-170.5571	1976.0469	1419.8416	-161.65724	1974.0686	1423.3401	-199.62393	2014.6429	1072.3651	-55.841537	2000.4063	1075.8466	-303.02975	2176.2495	1088.178	-106.23194	2170.9419	1094.6367	-223.92305	2181.2908	1148.9524	-170.79436	2186.9995	1124.0717	-183.7906	2192.1104	1117.7629	-145.10591	1905.3772	569.97833	-31.326622	1834.4788	676.7276	-70.32843	1857.3041	765.07947	-57.776562	1924.4485	886.35687	-50.104614	1961.4304	710.35083	-9.1576452	2018.135	848.91357	16.525656	2001.0249	804.30542	22.643444	1992.2979	775.42389	18.644241	1962.3362	797.63916	26.237253	1888.6495	494.34912	-24.769577	1829.5664	490.09241	-75.439575	1841.9808	236.83536	-87.977646	1884.3656	116.11822	-60.65818	1825.3529	434.41388	-103.95436	1820.9301	406.95581	-94.98233	1833.1117	406.48932	-131.81616	1953.7887	76.749245	-104.65794	1736.3674	93.208405	-88.259026	1798.3746	137.62985	-83.371689	1774.0229	122.27963	-72.534454	1768.0558	129.83214	-109.79494	2155.9404	542.13641	-308.02777	2057.1382	611.51233	-248.40213	2018.1472	686.79962	-248.87041	1983.8608	815.02954	-265.52698	2114.0562	696.89349	-334.62143	2080.7529	839.5589	-365.84277	2099.4521	789.32825	-370.45053	2093.3652	761.57019	-364.64075	2131.8933	767.49304	-363.16922	2180.8308	477.10693	-309.07867	2128.4119	460.42175	-264.49225	2229.4111	210.17172	-291.58127	2181.6892	218.52168	-246.33435	2244.8596	105.63915	-275.31879	2147.3584	398.84082	-208.73024	2156.3167	372.19858	-201.33192	2132.7771	367.27747	-230.2289	2323.3003	72.99498	-242.25261	2103.1455	69.134186	-232.41756	2158.2471	117.80816	-231.8468
411	4.1	2134.0083	103.19781	-221.75409	2132.782	107.08143	-259.1955	1970.9445	1445.0754	-170.09927	1961.0817	1416.7089	-161.30269	1958.9204	1420.2931	-199.12418	2000.2208	1069.7198	-55.337925	1985.9683	1072.8594	-302.77991	2161.9946	1085.3577	-105.83669	2156.5574	1091.9456	-223.56024	2167.0813	1146.2408	-170.44785	2172.697	1121.439	-183.35873	2177.8274	1115.0076	-144.74414	1889.8152	567.31439	-31.290337	1821.7897	673.47986	-72.05497	1844.5421	761.08862	-59.847149	1909.9906	882.42328	-50.707054	1947.4485	707.46484	-8.6951466	2003.5786	846.03809	16.756687	1986.5909	801.64142	22.823259	1978.0537	772.64667	18.931555	1947.8088	794.65515	26.326941	1869.6558	492.20731	-24.877211	1811.6072	490.35107	-76.743469	1807.619	238.03252	-87.644058	1841.9077	114.39785	-59.363338	1804.9182	435.82797	-105.07677	1798.4061	408.80984	-96.116135	1811.5659	407.21402	-132.73723	1909.5737	70.755844	-102.38032	1693.3958	100.38809	-88.548607	1757.7612	141.16156	-83.016403	1732.3326	127.39721	-72.289444	1727.36	135.04112	-109.68733	2151.4902	542.20801	-307.8212	2050.8218	609.21277	-248.07193	2009.6343	683.87109	-248.27641	1972.4904	811.46271	-265.10068	2105.853	695.98486	-335.09857	2068.9724	837.92462	-365.72214	2088.907	787.92712	-370.03595	2083.3894	760.29535	-364.25485	2122.1772	767.24268	-362.68506	2177.1807	477.5488	-308.68555	2124.7559	459.99344	-264.3746	2227.9509	210.94041	-290.95074	2180.2256	218.87524	-245.87732	2244.0762	106.28407	-274.48502	2144.1404	398.8215	-208.50267	2153.105	372.15417	-201.36929	2130.1985	366.94781	-229.66118	2322.6379	74.072639	-241.7226	2102.8315	68.591034	-231.94353	2157.7012	117.99491	-231.1591
412	4.11	2133.4482	103.03851	-221.29573	2132.2803	106.92948	-258.69125	1955.5585	1441.9102	-169.59166	1945.9197	1413.4381	-160.81204	1944.0576	1416.8994	-198.73512	1985.7795	1066.8854	-54.76239	1971.3647	1069.7612	-302.39096	2147.7507	1082.3229	-105.43056	2141.9045	1088.939	-223.21729	2152.7891	1143.2382	-170.09906	2158.3066	1118.4152	-182.92482	2163.5239	1111.9834	-144.29808	1874.7484	564.29175	-31.372059	1809.8889	669.45935	-73.715706	1832.2771	756.14313	-61.733482	1895.5223	877.93353	-51.287956	1933.7336	704.20544	-7.2423687	1988.4023	843.38092	18.066229	1971.7164	799.19055	23.982746	1964.1077	770.28772	20.362597	1933.9546	791.65527	27.268564	1850.8884	490.1824	-24.757238	1794.0503	490.5687	-77.908821	1775.1443	239.50305	-87.402878	1801.4777	114.01924	-57.911087	1784.9608	437.00854	-105.9069	1776.443	410.46713	-96.895134	1789.7117	408.22949	-133.09642	1867.1184	66.286163	-100.21244	1652.6089	108.66596	-88.494827	1719.2195	145.37997	-82.486076	1693.3317	132.77713	-72.103622	1688.9208	140.91423	-109.4433	2146.0979	542.15845	-307.30029	2044.163	606.9986	-247.37852	2000.2189	681.03088	-247.45013	1960.8892	807.79272	-264.58539	2097.0789	695.06885	-334.78156	2057.0742	835.83142	-365.4184	2077.896	786.54761	-369.78101	2073.1565	758.7395	-363.79089	2111.6528	765.93146	-362.02765	2172.8049	477.86691	-307.99707	2120.7515	459.43054	-263.56952	2226.3501	211.6134	-290.33786	2178.4019	219.05563	-245.39754	2243.4526	107.18211	-273.51776	2139.0229	398.78406	-208.19135	2149.5754	372.06723	-200.52921	2126.9592	366.47894	-229.20384	2322.2222	75.342239	-241.11157	2102.4175	68.161407	-231.78442	2157.0591	117.76836	-230.53969
